# xmcd
#
# Track frame offsets:
#	150
#	17466
#	34117
#	51832
#	68519
#	89402
#	106538
#	122744
#	140683
#	159019
#	176764
#	196960
#	216048
#	232682
#	252401
#
# Disc length: 3623 seconds
#
# Revision: 2
# Processed by: cddbd v1.5.2PL0 Copyright (c) Steve Scherf et al.
# Submitted via: EasyCDDAExtractor 15.3.0.1
#
DISCID=ba0e250f
DTITLE=Celine Dion - Loved Me Back To Life (Deluxe Edition)
DYEAR=2013
DGENRE=Pop
TTITLE0=Loved Me Back To Life
TTITLE1=Somebody Loves Somebody
TTITLE2=Incredible (Duet With Ne-Yo)
TTITLE3=Water And A Flame
TTITLE4=Breakaway
TTITLE5=Save Your Soul
TTITLE6=Didn't Know Love
TTITLE7=Thank You
TTITLE8=Overjoyed (Duet With Stevie Wonder)
TTITLE9=Thankful
TTITLE10=At Seventeen
TTITLE11=Always Be Your Girl
TTITLE12=Unfinished Songs
TTITLE13=How Do You Keep The Music Playing (Bonus Track)
TTITLE14=Lullabye (Goodnight, My Angel) (Bonus Track)
EXTD=
EXTT0=
EXTT1=
EXTT2=
EXTT3=
EXTT4=
EXTT5=
EXTT6=
EXTT7=
EXTT8=
EXTT9=
EXTT10=
EXTT11=
EXTT12=
EXTT13=
EXTT14=
PLAYORDER=
